<svg width="25" height="25" viewBox="0 0 25 25" fill="none" xmlns="http://www.w3.org/2000/svg">
<path fill-rule="evenodd" clip-rule="evenodd" d="M24.96 12.5C24.96 19.1274 19.5874 24.5 12.96 24.5C6.33254 24.5 0.959961 19.1274 0.959961 12.5C0.959961 5.87258 6.33254 0.5 12.96 0.5C19.5874 0.5 24.96 5.87258 24.96 12.5ZM12.9375 10.5294C12.9375 11.9721 11.7569 12.0639 11.7569 12.0639C13.282 12.0639 13.2094 13.987 13.2065 14.0645C13.2064 14.0661 13.2064 14.0669 13.2064 14.0669C13.2064 16.5286 10.7472 16.4481 10.7472 16.4481H6.71995V8.38226H10.7472C11.9715 8.38226 12.9375 9.08488 12.9375 10.5294ZM10.7472 9.81496H8.49461V11.6152H10.6075C10.9731 11.6152 11.2951 11.4935 11.2951 10.6536C11.2951 9.81496 10.7472 9.81496 10.7472 9.81496ZM8.49461 15.0141H10.6331C10.9538 15.0073 11.5634 14.9093 11.5634 13.9658C11.5634 12.847 10.7472 12.8582 10.7472 12.8582H8.49461V15.0141ZM13.5103 13.5328C13.5103 13.5328 13.5078 10.4333 16.4849 10.4333C19.618 10.4333 19.1762 13.9346 19.1756 13.9352H15.1677C15.1677 15.4341 16.5305 15.3392 16.5305 15.3392C17.8159 15.3392 17.771 14.4712 17.771 14.4712H19.1326C19.1326 16.7744 16.4849 16.6159 16.4849 16.6159C13.3069 16.6159 13.5103 13.5328 13.5103 13.5328ZM15.1539 12.8582H17.6961C17.6961 12.8582 17.7111 11.6152 16.5155 11.6152C15.3199 11.6152 15.1539 12.8582 15.1539 12.8582ZM14.8195 8.85587H18.0125V9.85053H14.8195V8.85587Z" fill="white"/>
</svg>
