<svg width="25" height="25" viewBox="0 0 25 25" fill="none" xmlns="http://www.w3.org/2000/svg">
<path fill-rule="evenodd" clip-rule="evenodd" d="M12.3201 24.5C18.9475 24.5 24.3201 19.1274 24.3201 12.5C24.3201 5.87258 18.9475 0.5 12.3201 0.5C5.69265 0.5 0.320068 5.87258 0.320068 12.5C0.320068 19.1274 5.69265 24.5 12.3201 24.5ZM7.27084 12.2851C7.27084 12.2664 7.27095 12.2478 7.27116 12.2292C8.9546 12.2047 10.6517 12.0612 12.4211 11.4167C12.6341 11.8006 12.8246 12.1795 12.9945 12.5565C12.4949 12.7286 12.0402 12.9334 11.6179 13.167C10.4088 13.8355 9.49998 14.7262 8.60901 15.6238C7.77999 14.756 7.27084 13.58 7.27084 12.2851ZM11.6554 10.1588C10.2655 10.6221 8.90697 10.753 7.50819 10.7847C7.91795 9.52843 8.82833 8.49838 10.0037 7.93017C10.6391 8.71163 11.1861 9.44859 11.6554 10.1588ZM13.0099 9.60012C12.5707 8.91722 12.0678 8.21787 11.4947 7.48895C11.6946 7.46375 11.8983 7.45077 12.1051 7.45077C13.174 7.45077 14.1618 7.79764 14.9622 8.38495C14.2961 8.88659 13.6475 9.28457 13.0099 9.60012ZM13.7477 10.841C14.4803 10.4702 15.2271 10.0018 15.9921 9.41026C16.5229 10.1267 16.8603 10.995 16.9271 11.938C15.9799 11.9572 15.1475 12.042 14.4044 12.1846C14.2112 11.7379 13.993 11.2913 13.7477 10.841ZM14.9192 13.555C15.478 13.4613 16.1044 13.401 16.8146 13.3811C16.5987 14.3126 16.1136 15.1409 15.4456 15.7796C15.3236 15.0158 15.151 14.2799 14.9192 13.555ZM18.3794 12.2851C18.3794 14.5865 17.1403 16.5985 15.2929 17.6904C15.2603 17.713 15.2257 17.7331 15.1894 17.7502C14.2786 18.2653 13.2262 18.5593 12.1051 18.5593C8.63994 18.5593 5.83084 15.7502 5.83084 12.2851C5.83084 8.81986 8.63994 6.01077 12.1051 6.01077C15.5703 6.01077 18.3794 8.81986 18.3794 12.2851ZM13.5172 13.8997C13.8136 14.8027 14.0047 15.7159 14.1164 16.6824C13.504 16.9629 12.8228 17.1193 12.1051 17.1193C11.2532 17.1193 10.4527 16.899 9.7576 16.5121C10.5968 15.6714 11.3379 14.9672 12.3147 14.4271C12.6736 14.2287 13.069 14.0506 13.5172 13.8997Z" fill="white"/>
</svg>
