<svg width="25" height="25" viewBox="0 0 25 25" fill="none" xmlns="http://www.w3.org/2000/svg">
<path fill-rule="evenodd" clip-rule="evenodd" d="M12.04 24.5C18.6675 24.5 24.04 19.1274 24.04 12.5C24.04 5.87258 18.6675 0.5 12.04 0.5C5.41262 0.5 0.0400391 5.87258 0.0400391 12.5C0.0400391 19.1274 5.41262 24.5 12.04 24.5ZM6.76004 9.35714C6.76004 8.17683 7.71687 7.22 8.89718 7.22H14.6115C15.7918 7.22 16.7486 8.17683 16.7486 9.35714V15.0714C16.7486 16.2517 15.7918 17.2086 14.6115 17.2086H8.89718C7.71687 17.2086 6.76004 16.2517 6.76004 15.0714V9.35714ZM8.89718 5.78C6.92158 5.78 5.32004 7.38154 5.32004 9.35714V15.0714C5.32004 17.047 6.92158 18.6486 8.89718 18.6486H14.6115C16.5871 18.6486 18.1886 17.047 18.1886 15.0714V9.35714C18.1886 7.38154 16.5871 5.78 14.6115 5.78H8.89718ZM11.7543 10.7915C10.9685 10.7915 10.3315 11.4285 10.3315 12.2143C10.3315 13.0001 10.9685 13.6372 11.7543 13.6372C12.5402 13.6372 13.1772 13.0001 13.1772 12.2143C13.1772 11.4285 12.5402 10.7915 11.7543 10.7915ZM8.89148 12.2143C8.89148 10.6332 10.1732 9.35146 11.7543 9.35146C13.3355 9.35146 14.6172 10.6332 14.6172 12.2143C14.6172 13.7954 13.3355 15.0772 11.7543 15.0772C10.1732 15.0772 8.89148 13.7954 8.89148 12.2143ZM15.6886 8.99998C15.6886 8.60234 15.3663 8.27998 14.9686 8.27998C14.571 8.27998 14.2486 8.60234 14.2486 8.99998V9.00211C14.2486 9.39976 14.571 9.72211 14.9686 9.72211C15.3663 9.72211 15.6886 9.39976 15.6886 9.00211V8.99998Z" fill="white"/>
</svg>
