<svg width="25" height="25" viewBox="0 0 25 25" fill="none" xmlns="http://www.w3.org/2000/svg">
<path fill-rule="evenodd" clip-rule="evenodd" d="M12.6799 24.5C19.3073 24.5 24.6799 19.1274 24.6799 12.5C24.6799 5.87258 19.3073 0.5 12.6799 0.5C6.05251 0.5 0.679932 5.87258 0.679932 12.5C0.679932 19.1274 6.05251 24.5 12.6799 24.5ZM8.44886 16.9657H10.5317V10.2629H8.44886V16.9657ZM8.39422 8.39752C8.39422 8.97394 8.81958 9.44001 9.47744 9.44001C10.176 9.44001 10.6003 8.97394 10.6003 8.39752C10.5874 7.8093 10.176 7.35716 9.50422 7.35716C8.83244 7.35716 8.39422 7.8093 8.39422 8.39752ZM16.056 16.9657H18.1389V13.0025C18.1389 11.0289 17.1114 10.1107 15.741 10.1107C14.6171 10.1107 13.9453 10.7557 13.671 11.1929H13.6292L13.5339 10.2618H11.7242C11.7521 10.8639 11.7789 11.5636 11.7789 12.4004V16.9647H13.8628V13.1C13.8628 12.9082 13.8767 12.7154 13.9324 12.5793C14.0835 12.1968 14.4253 11.7993 15.0007 11.7993C15.7539 11.7993 16.056 12.3864 16.056 13.2511V16.9657Z" fill="white"/>
</svg>
