<svg width="602" height="302" viewBox="0 0 602 302" fill="none" xmlns="http://www.w3.org/2000/svg">
<path d="M94.16 138L88.76 115.5H43.76L32.06 138H0.38L71.84 11.46H90.56L125.84 138H94.16ZM84.26 91.2L74.9 54.84L55.28 91.2H84.26ZM130.1 138L148.1 9.47999H176.54L158.54 138H130.1ZM258.397 89.22C258.397 98.4 256.417 104.16 256.417 104.16H202.777C204.757 111 210.337 115.86 219.877 115.86C229.417 115.86 234.817 111.18 237.157 109.56L248.857 128.1C244.357 132.24 233.017 139.62 215.197 139.62C189.817 139.62 174.877 122.88 174.877 101.64C174.877 71.4 196.657 53.58 221.497 53.58C245.797 53.58 258.397 68.52 258.397 89.22ZM219.517 75.72C212.137 75.72 206.557 79.86 203.857 87.06H232.297C232.117 80.58 227.437 75.72 219.517 75.72ZM350.57 55.2L317.63 97.5L339.41 138H306.83L298.01 116.94L284.33 138H251.21L284.51 95.7L264.35 55.2H297.47L304.85 74.28L317.45 55.2H350.57ZM100.28 233.4C113.06 237 118.82 246.9 118.82 258.96C118.82 283.26 103.7 300 65.54 300H15.14L32.96 173.46H81.38C110.54 173.46 122.24 185.88 122.24 201.9C122.24 217.74 113.24 228.9 100.28 233.4ZM92.54 209.46C92.54 202.62 87.86 198.3 77.24 198.3H58.88L55.1 224.58H73.64C86.78 224.58 92.54 219 92.54 209.46ZM69.14 275.16C83.18 275.16 89.48 269.04 89.48 259.68C89.48 252.12 84.26 247.98 72.74 247.98H51.86L47.9 275.16H69.14ZM124.65 300L142.65 171.48H171.09L153.09 300H124.65ZM236.208 217.2H262.668L250.968 300H225.768L225.948 293.52C221.268 298.38 214.428 301.62 203.268 301.62C183.828 301.62 169.788 287.58 169.788 264.36C169.788 233.58 190.308 215.58 213.348 215.58C222.528 215.58 229.368 218.46 234.408 222.78L236.208 217.2ZM212.268 275.88C223.068 275.88 229.008 267.24 229.008 256.26C229.008 247.62 223.968 241.32 214.968 241.32C205.608 241.32 198.408 248.88 198.408 260.58C198.408 269.22 203.268 275.88 212.268 275.88ZM326.47 215.58C347.89 215.58 359.77 230.52 356.35 254.28L349.87 300H321.43L327.19 257.7C328.81 246.18 324.13 241.14 316.21 241.14C308.47 241.14 302.89 245.28 300.55 255L294.25 300H265.81L277.51 217.2H297.85L298.39 228.54C304.15 220.98 314.05 215.58 326.47 215.58ZM404.671 301.62C380.731 301.62 365.431 285.24 365.431 263.82C365.431 236.1 383.611 215.58 412.951 215.58C428.971 215.58 437.431 221.88 439.951 224.22L425.731 246.72C423.571 244.56 418.891 241.32 411.511 241.32C400.891 241.32 393.871 248.7 393.871 260.76C393.871 269.76 398.371 275.88 408.271 275.88C414.571 275.88 418.891 272.82 421.591 270.48L435.091 289.92C431.131 293.88 422.311 301.62 404.671 301.62ZM499.625 215.58C521.045 215.58 532.925 230.52 529.505 254.28L523.025 300H494.585L500.345 257.7C501.965 246.18 497.285 241.14 489.365 241.14C481.625 241.14 476.225 245.1 473.885 254.46L467.585 300H438.965L456.965 171.48H485.405L478.205 221.88C483.605 217.92 490.805 215.58 499.625 215.58Z" fill="white"/>
</svg>
