<svg width="460" height="307" viewBox="0 0 460 307" fill="none" xmlns="http://www.w3.org/2000/svg">
<g clip-path="url(#clip0_1301_160)">
<path d="M223.53 30.9199C223.53 30.9199 223.53 30.9748 223.475 30.9748C223.586 31.1945 223.752 31.4142 223.919 31.6339C223.808 31.3593 223.697 31.1396 223.53 30.9199Z" fill="white"/>
<path d="M403.465 146.306C430.4 135.816 448.948 112.255 448.948 79.4685C448.948 34.0501 415.849 0 334.601 0H272.512C250.854 0 232.194 12.6315 223.586 30.8648L330.936 214.735C330.936 214.735 330.714 214.406 330.325 213.802C330.547 214.131 330.769 214.516 330.991 214.845C331.491 215.724 331.935 216.548 332.435 217.426C332.435 217.481 332.491 217.536 332.491 217.591C332.935 218.47 333.379 219.348 333.768 220.227C333.768 220.282 333.824 220.337 333.824 220.392C334.212 221.271 334.601 222.149 334.934 222.973C334.99 223.083 334.99 223.193 335.045 223.303C335.379 224.126 335.656 224.95 335.934 225.774C335.989 225.939 336.045 226.104 336.1 226.268C336.323 227.037 336.6 227.751 336.767 228.52C336.822 228.795 336.934 229.069 336.989 229.289C337.156 229.948 337.322 230.607 337.489 231.266C337.6 231.65 337.655 231.98 337.767 232.364C337.878 232.914 337.989 233.518 338.1 234.067C338.211 234.506 338.266 235.001 338.377 235.44C338.433 235.934 338.544 236.428 338.6 236.923C338.655 237.472 338.766 238.021 338.822 238.57C338.877 239.01 338.933 239.449 338.933 239.888C338.988 240.492 339.044 241.097 339.044 241.646C339.044 242.085 339.099 242.525 339.099 242.909C339.099 243.513 339.155 244.062 339.155 244.666C339.155 245.161 339.155 245.6 339.155 246.094C339.155 246.589 339.155 247.083 339.099 247.577C339.099 248.181 339.044 248.73 339.044 249.335C339.044 249.664 338.988 249.994 338.988 250.268C338.933 251.037 338.877 251.806 338.766 252.52C338.766 252.63 338.766 252.685 338.711 252.794C337.489 262.515 333.99 271.906 328.381 280.035C328.326 280.089 328.27 280.199 328.214 280.254C327.715 280.968 327.215 281.682 326.659 282.341C326.437 282.671 326.16 283 325.882 283.275C325.549 283.714 325.16 284.153 324.827 284.593C324.494 284.977 324.16 285.362 323.772 285.801C323.438 286.131 323.161 286.515 322.828 286.845C322.494 287.229 322.106 287.613 321.772 287.943C321.439 288.272 321.106 288.657 320.717 288.986C320.384 289.316 320.051 289.591 319.773 289.865C319.329 290.25 318.885 290.689 318.44 291.073C318.218 291.293 317.94 291.513 317.718 291.732C317.163 292.227 316.608 292.666 315.997 293.16C315.83 293.27 315.719 293.38 315.552 293.49C314.83 294.039 314.108 294.588 313.387 295.137C313.331 295.137 313.331 295.192 313.275 295.192C311.609 296.401 309.832 297.499 308 298.597C304.279 300.739 300.447 302.442 296.504 303.705C295.615 303.979 294.671 304.254 293.783 304.529C293.671 304.584 293.56 304.584 293.449 304.638C292.672 304.858 291.839 305.078 291.061 305.243C290.839 305.298 290.561 305.352 290.339 305.407C289.673 305.572 288.951 305.682 288.284 305.792C287.896 305.847 287.563 305.902 287.174 306.011C286.618 306.121 286.008 306.176 285.452 306.286C284.952 306.341 284.508 306.396 284.008 306.451C283.508 306.506 283.009 306.561 282.509 306.616C281.953 306.671 281.398 306.725 280.843 306.725C280.398 306.78 279.899 306.78 279.454 306.78C278.899 306.78 278.288 306.835 277.733 306.835C277.455 306.835 277.233 306.835 276.955 306.835H272.457H342.098C423.347 306.835 460 273.664 460 219.074C460 185.189 439.674 156.356 403.465 146.306Z" fill="white"/>
<path d="M218.421 253.563V53.4916C218.421 45.4184 220.254 37.8395 223.475 30.9746C218.199 21.858 210.535 13.8946 200.65 8.23793C197.928 6.70018 195.207 5.38211 192.375 4.28372C192.208 4.2288 192.097 4.17388 191.93 4.11896C191.264 3.84437 190.542 3.62469 189.876 3.40501C189.542 3.29517 189.209 3.18533 188.876 3.07549C188.376 2.91073 187.932 2.80089 187.432 2.63614C186.932 2.47138 186.377 2.30662 185.877 2.19678C185.599 2.14186 185.322 2.03202 184.989 1.9771C184.267 1.81234 183.545 1.59267 182.823 1.48283C182.712 1.48283 182.601 1.42791 182.489 1.42791C181.601 1.26315 180.768 1.09839 179.879 0.933632C179.879 0.933632 179.879 0.933632 179.824 0.933632C178.88 0.768873 177.88 0.659034 176.88 0.494276H176.825C175.881 0.384437 174.881 0.274597 173.937 0.219678C173.77 0.219678 173.604 0.219678 173.382 0.219678C172.66 0.0549195 171.827 0 171.049 0C170.549 0 170.05 0 169.605 0C169.105 0 168.606 0 168.161 0C167.384 0 166.551 0.0549195 165.773 0.109839C165.607 0.109839 165.44 0.109839 165.218 0.109839C164.274 0.164758 163.274 0.274598 162.33 0.384437C162.33 0.384437 162.33 0.384437 162.275 0.384437C161.275 0.494276 160.331 0.659034 159.331 0.823793C159.331 0.823793 159.331 0.823793 159.276 0.823793C158.387 0.988551 157.498 1.15331 156.665 1.31807C156.554 1.31807 156.443 1.37299 156.277 1.37299C155.555 1.53775 154.833 1.7025 154.111 1.86726C153.833 1.92218 153.555 2.03202 153.222 2.08694C152.667 2.2517 152.167 2.41646 151.667 2.5263C151.167 2.69106 150.668 2.80089 150.223 2.96565C149.946 3.13041 149.612 3.24025 149.279 3.40501C148.613 3.62469 147.891 3.89928 147.224 4.11896C147.058 4.17388 146.947 4.2288 146.78 4.28372C143.948 5.38211 141.227 6.70018 138.505 8.23793C128.676 13.8397 120.956 21.7481 115.68 30.8648V30.7549L8.27478 214.735C8.27478 214.735 8.44139 214.461 8.7746 214.021C3.22106 223.193 0 234.012 0 245.49C0 266.689 10.8849 285.417 27.379 296.455C27.4345 296.455 27.4345 296.51 27.49 296.51C28.1565 296.95 28.8784 297.389 29.6004 297.828C29.8225 297.993 30.1002 298.103 30.3223 298.268C30.8777 298.597 31.4331 298.927 32.0439 299.256C32.4327 299.476 32.8214 299.696 33.2102 299.86C33.71 300.135 34.2098 300.355 34.7096 300.629C35.1539 300.849 35.5982 301.069 36.0425 301.288C36.5423 301.508 36.9866 301.728 37.4864 301.947C37.9307 302.167 38.4305 302.332 38.8748 302.552C39.3746 302.771 39.8744 302.936 40.3743 303.101C40.8185 303.265 41.2628 303.43 41.7626 303.595C42.2625 303.76 42.8178 303.979 43.3176 304.144C43.7619 304.254 44.1507 304.419 44.595 304.529C45.1503 304.693 45.7612 304.858 46.3166 305.023C46.7053 305.133 47.0941 305.243 47.4828 305.298C48.0937 305.462 48.7046 305.572 49.371 305.737C49.7042 305.792 50.093 305.902 50.4262 305.957C51.0926 306.066 51.759 306.231 52.4254 306.286C52.7587 306.341 53.0919 306.396 53.4251 306.451C54.0915 306.561 54.8135 306.616 55.4799 306.725C55.8131 306.78 56.1463 306.78 56.4795 306.835C57.146 306.89 57.8679 306.945 58.5343 307C58.9231 307 59.3118 307.055 59.6451 307.055C60.2559 307.055 60.8668 307.11 61.5333 307.11C61.8109 307.11 62.0331 307.11 62.3108 307.11H272.623C242.634 307 218.421 283.055 218.421 253.563Z" fill="white"/>
<path d="M223.53 30.7551V30.865V30.9199L223.586 30.865L223.53 30.7551Z" fill="white"/>
</g>
<defs>
<clipPath id="clip0_1301_160">
<rect width="460" height="307" fill="white"/>
</clipPath>
</defs>
</svg>
